<mxfile host="app.diagrams.net" modified="2024-03-13T10:28:06.407Z" agent="Mozilla/5.0 (Windows NT 10.0; Win64; x64; rv:122.0) Gecko/20100101 Firefox/122.0" version="24.0.5" etag="EEK1Dm84EXogdF9Xcz6U" type="github">
  <diagram name="Page-1" id="ODYHALVvgwmd9jgxpL7Y">
    <mxGraphModel>
      <root>
        <mxCell id="0" />
        <mxCell id="1" parent="0" />
      </root>
    </mxGraphModel>
  </diagram>
</mxfile>
